<svg width="16" height="16" viewBox="0 0 16 16" fill="none" xmlns="http://www.w3.org/2000/svg">
<path d="M11.013 12.929V13.429H4.177C4.08783 13.4291 3.99952 13.4115 3.91715 13.3774C3.83477 13.3432 3.76096 13.2931 3.698 13.23C3.60355 13.1353 3.53928 13.0147 3.5133 12.8834C3.48733 12.7522 3.50082 12.6162 3.55207 12.4927C3.60331 12.3691 3.69002 12.2635 3.80125 12.1891C3.91247 12.1148 4.04322 12.0751 4.177 12.075M11.013 12.929H11.513V12.575H11.013M11.013 12.929V12.575M11.013 12.929H4.177H4.17657C4.15326 12.929 4.13017 12.9244 4.10864 12.9155C4.08906 12.9074 4.07006 12.895 4.05208 12.877C4.02738 12.8522 4.01058 12.8207 4.00379 12.7864C3.997 12.7521 4.00053 12.7165 4.01392 12.6842C4.02732 12.6519 4.04999 12.6243 4.07907 12.6048C4.10815 12.5854 4.14234 12.575 4.17731 12.575M11.013 12.575V12.075H4.177M11.013 12.575H4.17731M4.177 12.075V12.575H4.17731M4.177 12.075L4.17731 12.575M11.763 0.562V0.563H4.177L4.17697 0.563C3.47974 0.563047 2.81001 0.835016 2.31016 1.3211C1.8103 1.80718 1.51972 2.46904 1.5002 3.166L1.5 3.16599V3.18L1.5 12.754L1.5 12.7545C1.50065 13.464 1.78298 14.1443 2.28494 14.6458C2.78691 15.1473 3.46744 15.429 4.177 15.429H13.214C13.5455 15.429 13.8635 15.2973 14.0979 15.0629C14.3323 14.8285 14.464 14.5105 14.464 14.179C14.464 13.8475 14.3323 13.5295 14.0979 13.2951C13.9356 13.1328 13.7332 13.0197 13.514 12.9655V12.185C13.7615 12.0143 13.9723 11.7939 14.1323 11.5367C14.3496 11.1875 14.4645 10.7843 14.464 10.373C14.464 10.373 14.464 10.3729 14.464 10.3729C14.464 10.3727 14.464 10.3725 14.464 10.3722L14.464 2.763C14.464 2.47396 14.4071 2.18775 14.2965 1.92071C14.1858 1.65368 14.0237 1.41104 13.8193 1.20666C13.615 1.00228 13.3723 0.840152 13.1053 0.729541C12.8382 0.618931 12.552 0.562 12.263 0.562H11.763Z" fill="black" stroke="white"/>
<path fill-rule="evenodd" clip-rule="evenodd" d="M10.1751 10.1827C9.71808 10.2903 9.23867 10.2498 8.8062 10.067C7.05717 9.01822 5.59354 7.5546 4.5448 5.80556C4.36336 5.37243 4.32375 4.89295 4.43164 4.43591C4.53954 3.97886 4.7894 3.56773 5.1454 3.26146L5.4652 2.94166C5.57704 2.80205 5.73853 2.7111 5.9159 2.68784C6.09326 2.66457 6.27275 2.71081 6.4168 2.81686L7.4516 3.85166C7.55766 3.99572 7.60389 4.17521 7.58063 4.35257C7.55737 4.52993 7.46642 4.69143 7.3268 4.80326C7.18739 4.91528 7.09669 5.07687 7.07367 5.25423C7.05065 5.43158 7.0971 5.61097 7.2033 5.75487L8.8569 7.40847C9.0008 7.51467 9.18019 7.56112 9.35754 7.5381C9.5349 7.51508 9.69648 7.42438 9.8085 7.28496C9.92052 7.14555 10.0821 7.05485 10.2595 7.03183C10.4368 7.00881 10.6162 7.05526 10.7601 7.16147L11.7949 8.19497C11.901 8.33902 11.9472 8.51851 11.9239 8.69587C11.9007 8.87324 11.8097 9.03473 11.6701 9.14656L11.3503 9.46767C11.0448 9.82458 10.6337 10.075 10.1764 10.1827H10.1751Z" fill="white"/>
</svg>
